<svg id="Layer_1" data-name="Layer 1" xmlns="http://www.w3.org/2000/svg" xmlns:xlink="http://www.w3.org/1999/xlink" viewBox="0 0 2144.71 961.42"><defs><style>.cls-1{fill:#fff;}.cls-2{clip-path:url(#clip-path);}</style><clipPath id="clip-path"><path class="cls-1" d="M533.44,517.41c0,115.55-88.9,184.53-237.8,184.53-68.42,0-126.32-19.68-167.44-56.91S62.62,552.65,57.86,485.94l-.36-5.12h92.3l.32,4.44c3,42.89,18,78.21,43.43,102.14S254.78,624,297.23,624c90,0,141.55-36.23,141.55-99.4,0-34.93-14.8-58.52-46.58-74.22-29.12-14.39-68.31-20.42-109.81-26.81l-.21,0-.36-.06c-49-7.69-99.72-15.65-139.25-37.65-45.77-25.46-68-65.66-68-122.89,0-111.19,80.58-175,221.09-175,129.5,0,212.15,77.18,221.09,206.46l.35,5.11H425.52l-.26-4.51c-2.26-40-15.64-73-38.7-95.25s-55.45-33.85-94.1-33.85c-78.83,0-124,33.33-124,91.45,0,29.54,13.62,49.64,42.86,63.27,27.35,12.74,66,18.59,103.4,24.25l1.51.24c51.17,8.12,104.08,16.52,145.66,40.15C510,412.64,533.44,455.86,533.44,517.41Zm674.52-233c-38.39,0-71.23,11.42-95,33-15.53,14.14-27.23,32.7-34.65,54.71V288.36h-89.1V698h89.1V477.66c0-37.07,9.16-67.57,26.51-88.19,17.11-20.34,42.32-31.1,72.88-31.1,55.59,0,87.47,33.91,87.47,93V698h89.09V449C1354.29,345.93,1299.59,284.38,1208,284.38Zm215.85,4H1419V694h89.1V288.36h-84.32Zm39.77-49a50.82,50.82,0,1,0-50.82-50.82A50.87,50.87,0,0,0,1463.58,239.35Zm463.1,0a50.82,50.82,0,1,0-50.82-50.82A50.88,50.88,0,0,0,1926.68,239.35Zm-39.76,49h-4.78V694h89.08V288.36h-84.3Zm-56.2,0H1642.43c14.07-5.05,28.61-16.23,41-32,17-21.63,27.18-48.1,27.18-70.8V144h-89.1V288.36h-66.8v72.75H1616V574.67c0,79.69,47.87,127.27,128,127.27,28.91,0,60-6.41,83.13-17.15l2.77-1.28V612.26l-6.92,3.47c-15.29,7.65-35.3,12.22-53.53,12.22-41.53,0-64.4-21.74-64.4-61.23V361.11H1835.5V288.36Zm-879.1,0H862.09l-1,3.51L756.61,668.38h-1.17L651.06,291.87l-1-3.51h-96l1.86,6.17,119.29,396,1,3.4h73.21L700.42,870.83l-1.68,6.06H785l1-3.43,170.2-579,1.8-6.14Z"/></clipPath></defs><title>Syniti_Logo_RBG_White_WIP_180419</title><path class="cls-1" d="M533.44,517.41c0,115.55-88.9,184.53-237.8,184.53-68.42,0-126.32-19.68-167.44-56.91S62.62,552.65,57.86,485.94l-.36-5.12h92.3l.32,4.44c3,42.89,18,78.21,43.43,102.14S254.78,624,297.23,624c90,0,141.55-36.23,141.55-99.4,0-34.93-14.8-58.52-46.58-74.22-29.12-14.39-68.31-20.42-109.81-26.81l-.21,0-.36-.06c-49-7.69-99.72-15.65-139.25-37.65-45.77-25.46-68-65.66-68-122.89,0-111.19,80.58-175,221.09-175,129.5,0,212.15,77.18,221.09,206.46l.35,5.11H425.52l-.26-4.51c-2.26-40-15.64-73-38.7-95.25s-55.45-33.85-94.1-33.85c-78.83,0-124,33.33-124,91.45,0,29.54,13.62,49.64,42.86,63.27,27.35,12.74,66,18.59,103.4,24.25l1.51.24c51.17,8.12,104.08,16.52,145.66,40.15C510,412.64,533.44,455.86,533.44,517.41Zm674.52-233c-38.39,0-71.23,11.42-95,33-15.53,14.14-27.23,32.7-34.65,54.71V288.36h-89.1V698h89.1V477.66c0-37.07,9.16-67.57,26.51-88.19,17.11-20.34,42.32-31.1,72.88-31.1,55.59,0,87.47,33.91,87.47,93V698h89.09V449C1354.29,345.93,1299.59,284.38,1208,284.38Zm215.85,4H1419V694h89.1V288.36h-84.32Zm39.77-49a50.82,50.82,0,1,0-50.82-50.82A50.87,50.87,0,0,0,1463.58,239.35Zm463.1,0a50.82,50.82,0,1,0-50.82-50.82A50.88,50.88,0,0,0,1926.68,239.35Zm-39.76,49h-4.78V694h89.08V288.36h-84.3Zm-56.2,0H1642.43c14.07-5.05,28.61-16.23,41-32,17-21.63,27.18-48.1,27.18-70.8V144h-89.1V288.36h-66.8v72.75H1616V574.67c0,79.69,47.87,127.27,128,127.27,28.91,0,60-6.41,83.13-17.15l2.77-1.28V612.26l-6.92,3.47c-15.29,7.65-35.3,12.22-53.53,12.22-41.53,0-64.4-21.74-64.4-61.23V361.11H1835.5V288.36Zm-879.1,0H862.09l-1,3.51L756.61,668.38h-1.17L651.06,291.87l-1-3.51h-96l1.86,6.17,119.29,396,1,3.4h73.21L700.42,870.83l-1.68,6.06H785l1-3.43,170.2-579,1.8-6.14Z"/><g class="cls-2"><rect class="cls-1" width="2144.71" height="961.42"/></g></svg>